<svg version="1.1" id="Layer_1" xmlns="http://www.w3.org/2000/svg" xmlns:xlink="http://www.w3.org/1999/xlink" x="0px" y="0px"
	 width="100%" viewBox="0 0 719 523" enable-background="new 0 0 719 523" xml:space="preserve">
<path fill="#000000" opacity="1.000000" stroke="none" 
	d="
M460.000000,524.000000 
	C306.666687,524.000000 153.833389,524.000000 1.000062,524.000000 
	C1.000041,349.666718 1.000041,175.333450 1.000021,1.000132 
	C240.666565,1.000088 480.333130,1.000088 719.999756,1.000044 
	C719.999878,175.333191 719.999878,349.666382 719.999939,523.999756 
	C633.500000,524.000000 547.000000,524.000000 460.000000,524.000000 
M600.954834,283.040894 
	C600.954834,283.040894 600.884888,283.079437 601.131714,283.618286 
	C601.731323,284.115692 602.330872,284.613098 603.209473,285.727936 
	C606.123047,288.014160 609.036621,290.300385 612.986267,293.399597 
	C612.986267,289.687988 612.985901,287.866821 612.986328,286.045624 
	C613.002563,216.602783 612.986572,147.159897 613.121094,77.717285 
	C613.128601,73.838219 611.827576,72.918297 608.241455,72.934250 
	C582.429871,73.049088 556.617615,73.001884 530.805542,73.016640 
	C530.014648,73.017097 529.223877,73.132858 528.181030,73.214622 
	C528.073364,74.438965 527.915955,75.391891 527.916321,76.344749 
	C527.934448,118.975166 528.323669,161.610428 527.744934,204.232559 
	C527.600830,214.847412 529.164734,223.225754 539.199158,228.784821 
	C539.199158,228.784821 539.521362,228.852371 539.792969,229.234589 
	C540.249512,229.652313 540.706055,230.070038 541.256836,230.748215 
	C541.256836,230.748215 541.518250,230.839615 541.895569,231.339859 
	C543.228943,232.354706 544.562378,233.369553 546.113708,234.765259 
	C546.357422,234.940079 546.627625,235.049240 546.986084,235.013565 
	C546.986084,235.013565 546.905884,235.073944 547.150208,235.644989 
	C547.783020,236.175995 548.415771,236.706985 549.225220,237.745438 
	C549.778381,238.179825 550.331604,238.614197 551.176880,239.663574 
	C560.517944,248.006165 569.788269,256.429932 579.224670,264.663239 
	C585.662292,270.280029 592.331909,275.630737 598.927673,281.049316 
	C598.927673,281.049316 598.880615,281.085144 599.115173,281.629395 
	C599.717285,282.124084 600.319336,282.618774 600.954834,283.040894 
M87.856255,405.846130 
	C88.494049,405.901947 89.131851,405.957764 90.625183,406.225311 
	C91.504173,406.177521 92.383163,406.129730 94.042130,406.305054 
	C96.007179,406.520020 97.974480,406.938385 99.936897,406.916534 
	C111.717178,406.785522 123.495743,406.496307 135.276077,406.375702 
	C142.842728,406.298218 150.411438,406.419067 158.865921,406.251587 
	C160.789108,406.163452 162.712296,406.075287 164.811142,405.979095 
	C164.892090,404.675690 164.979050,403.868286 164.987122,403.060059 
	C165.323898,369.295776 165.733917,335.531921 165.955597,301.766876 
	C166.100342,279.717834 165.977554,257.667023 165.957016,235.617020 
	C165.953293,231.623276 165.892471,227.629013 165.808960,223.636017 
	C165.631973,215.174057 165.292816,206.713211 165.263290,198.251068 
	C165.234009,189.853928 165.502502,181.455750 165.641556,173.058044 
	C165.790604,164.057999 165.940994,155.057968 167.015076,145.998856 
	C190.149200,145.984558 213.284195,145.864853 236.416626,146.055923 
	C240.445435,146.089188 244.766037,146.730042 248.428284,148.306595 
	C258.462677,152.626297 263.137085,160.793243 263.711761,171.630981 
	C264.096130,178.880325 262.437073,185.297256 257.662720,190.854431 
	C251.364929,198.184814 242.830139,199.600342 233.909470,199.728455 
	C220.106857,199.926666 206.301102,199.975662 192.496994,199.943359 
	C189.442932,199.936203 187.915619,200.655289 187.938278,204.098877 
	C188.085037,226.398285 188.084763,248.698685 188.140671,271.610809 
	C189.109238,271.692627 190.077789,271.774445 191.778183,272.289581 
	C200.548523,272.433777 209.318863,272.577972 218.963425,272.806854 
	C234.658447,273.152618 250.353470,273.498352 266.701324,274.175232 
	C282.045135,280.024048 288.130768,292.625641 284.981018,312.150238 
	C283.655670,320.365875 272.167358,332.454437 257.125549,332.022400 
	C250.988983,332.269562 244.850601,332.761047 238.716187,332.715698 
	C223.427780,332.602661 208.141251,332.239716 192.853729,331.991486 
	C190.109924,331.946930 187.132721,331.688202 187.878967,336.949158 
	C187.971542,359.625153 188.064117,382.301117 188.290771,405.699829 
	C189.349380,406.092621 190.411209,406.831696 191.466064,406.821838 
	C198.194397,406.759308 204.920273,406.458191 211.648697,406.373383 
	C228.084564,406.166290 244.521362,406.034180 261.749786,405.983704 
	C272.176483,404.046570 282.603149,402.109406 293.794769,400.020477 
	C304.079773,395.024384 314.959076,390.960602 324.536896,384.855194 
	C351.825287,367.460083 363.725342,341.034546 365.941193,309.637512 
	C366.762817,297.995636 364.895691,286.574066 360.939392,275.611420 
	C355.552795,260.685516 347.951935,247.178421 335.036346,237.267899 
	C331.155243,234.289825 327.497253,231.021057 323.735565,227.884247 
	C324.291718,226.853531 324.543884,226.233200 324.923553,225.704453 
	C343.370026,200.013214 349.704712,172.001694 340.920349,141.191101 
	C334.025360,117.007309 319.192261,99.089592 297.490143,86.605621 
	C281.519531,77.418686 263.974701,73.630402 245.973038,73.199211 
	C217.340591,72.513382 188.677765,73.095772 159.347305,73.003647 
	C158.889954,73.054443 158.432587,73.105240 157.048599,73.040627 
	C151.380615,73.084175 145.712646,73.127724 139.283386,73.018303 
	C138.513153,73.069267 137.742920,73.120232 136.047394,73.036247 
	C121.565521,73.022774 107.083649,73.008057 92.601776,72.996384 
	C86.011162,72.991074 85.989792,72.993820 85.991035,79.664940 
	C86.007004,165.722595 86.015106,251.780258 86.073799,337.837860 
	C86.079346,345.973633 86.585175,354.109802 86.555481,362.244659 
	C86.505959,375.814209 86.182426,389.382660 86.092773,402.952362 
	C86.087524,403.747406 87.137428,404.549377 87.835571,405.302979 
	C87.835571,405.302979 87.804947,405.158569 87.856255,405.846130 
M420.858521,406.254700 
	C423.111023,406.254700 425.363525,406.254700 428.018524,406.254700 
	C428.018524,403.467346 428.018707,401.502899 428.018494,399.538422 
	C428.013397,354.627808 427.992249,309.717133 428.050568,264.806610 
	C428.053497,262.555359 428.745209,260.304993 429.747162,258.261627 
	C487.466858,306.191559 545.186584,354.121490 603.017090,402.748505 
	C604.997559,404.654572 606.891479,406.664520 608.998596,408.418457 
	C609.913025,409.179626 611.266235,409.413757 612.420105,409.887299 
	C612.922729,408.592773 613.880371,407.287567 613.850342,406.005554 
	C613.710999,400.071259 613.066406,394.145081 613.023315,388.212952 
	C612.867859,366.813782 612.881836,345.413361 612.957397,323.345093 
	C612.915710,322.895630 612.874023,322.446136 612.976562,321.301361 
	C612.669678,320.486176 612.362854,319.671021 611.778870,318.249329 
	C610.834351,317.313477 609.935303,316.326050 608.938599,315.449524 
	C592.554443,301.040680 576.094238,286.717743 559.784241,272.225525 
	C546.333862,260.274139 533.081177,248.100479 519.698547,236.072342 
	C506.766052,224.448853 493.812531,212.848297 480.805969,201.307877 
	C470.917480,192.534042 460.931427,183.870224 450.491577,174.942581 
	C449.984406,174.446045 449.477234,173.949493 448.821228,173.110306 
	C448.821228,173.110306 448.467194,172.991104 448.146606,172.477463 
	C438.427490,163.812012 428.743500,155.106766 418.977844,146.494110 
	C411.571930,139.962601 403.959839,133.662628 396.618500,127.060600 
	C378.655945,110.907021 360.805389,94.628899 342.874542,78.439926 
	C341.855408,77.519783 340.519867,76.950043 339.331604,76.217224 
	C338.888855,77.713608 338.117004,79.198494 338.064209,80.708519 
	C337.895538,85.532471 337.650543,90.399986 338.127625,95.181580 
	C338.382050,97.731628 339.760498,100.328110 341.162872,102.571541 
	C343.949951,107.030106 347.826782,110.932701 349.957642,115.650276 
	C354.442230,125.578766 358.090729,135.884888 362.003204,146.819809 
	C362.062469,147.866776 362.121735,148.913742 362.168182,150.699127 
	C362.501007,152.121857 362.833862,153.544586 363.029663,155.859329 
	C363.258301,159.317963 363.639038,162.774353 363.690369,166.235626 
	C363.977173,185.565048 359.176270,203.685501 349.692841,220.414474 
	C347.133545,224.929123 348.287476,227.214478 351.618683,230.030380 
	C355.150238,233.015671 358.819885,236.007187 361.675415,239.595825 
	C383.968170,267.612274 389.709351,299.474457 381.484924,333.697052 
	C376.611298,353.976776 366.528656,371.814453 350.400848,385.733124 
	C346.211243,389.348877 345.462646,401.845184 349.425812,406.815277 
	C352.009521,406.869415 354.594421,407.003174 357.176758,406.964478 
	C371.724426,406.746582 386.271271,406.476654 400.818817,406.247070 
	C407.203186,406.146332 413.588470,406.099243 420.858521,406.254700 
z"/>
<path fill="#EC6727" opacity="1.000000" stroke="none" 
	d="
M160.027786,73.141769 
	C188.677765,73.095772 217.340591,72.513382 245.973038,73.199211 
	C263.974701,73.630402 281.519531,77.418686 297.490143,86.605621 
	C319.192261,99.089592 334.025360,117.007309 340.920349,141.191101 
	C349.704712,172.001694 343.370026,200.013214 324.923553,225.704453 
	C324.543884,226.233200 324.291718,226.853531 323.735565,227.884247 
	C327.497253,231.021057 331.155243,234.289825 335.036346,237.267899 
	C347.951935,247.178421 355.552795,260.685516 360.939392,275.611420 
	C364.895691,286.574066 366.762817,297.995636 365.941193,309.637512 
	C363.725342,341.034546 351.825287,367.460083 324.536896,384.855194 
	C314.959076,390.960602 304.079773,395.024384 293.262115,400.008850 
	C292.796356,399.647797 292.840881,399.291779 292.940918,398.952148 
	C292.982513,398.810913 293.209137,398.713806 293.227844,398.579437 
	C293.242828,398.471863 293.070648,398.338196 293.378296,398.759613 
	C281.625641,400.494690 270.231995,403.209229 258.751343,403.648163 
	C237.479858,404.461334 216.157242,403.895111 194.856689,404.026855 
	C191.137207,404.049866 189.922287,402.510254 189.940567,398.947266 
	C190.048157,377.980072 190.024506,357.012207 190.509338,336.033661 
	C209.718887,336.015381 228.464294,336.042206 247.209213,335.956146 
	C249.472427,335.945770 251.732849,335.324921 254.340027,334.967896 
	C255.758743,334.639557 256.832001,334.330322 258.348602,334.020996 
	C261.370331,334.020874 263.948700,334.020874 266.527100,334.020874 
	C266.526581,333.788147 266.526093,333.555450 266.525574,333.322723 
	C263.694519,332.939606 260.863464,332.556488 258.032410,332.173340 
	C272.167358,332.454437 283.655670,320.365875 284.981018,312.150238 
	C288.130768,292.625641 282.045135,280.024048 266.616394,273.884827 
	C267.568024,273.439148 268.604584,273.283905 269.641113,273.128632 
	C269.679016,272.788269 269.716919,272.447906 269.754791,272.107544 
	C265.848114,271.401428 261.941437,270.695312 257.563904,269.984924 
	C236.641327,269.984436 216.188812,269.896851 195.738419,270.065918 
	C191.447205,270.101410 189.862885,268.776276 189.916763,264.362457 
	C190.097458,249.566650 189.937485,234.766693 189.912842,219.968323 
	C189.904739,215.096802 189.911560,210.225266 189.911560,205.353729 
	C188.994553,224.796310 189.024872,244.226715 188.956467,263.656799 
	C188.947845,266.105042 188.419968,268.551483 188.132675,270.998749 
	C188.084763,248.698685 188.085037,226.398285 187.938278,204.098877 
	C187.915619,200.655289 189.442932,199.936203 192.496994,199.943359 
	C206.301102,199.975662 220.106857,199.926666 233.909470,199.728455 
	C242.830139,199.600342 251.364929,198.184814 257.662720,190.854431 
	C262.437073,185.297256 264.096130,178.880325 263.711761,171.630981 
	C263.137085,160.793243 258.462677,152.626297 248.428284,148.306595 
	C244.766037,146.730042 240.445435,146.089188 236.416626,146.055923 
	C213.284195,145.864853 190.149200,145.984558 166.656418,145.801620 
	C167.867157,145.391479 169.436554,145.178574 171.474243,144.969147 
	C195.242905,144.972595 218.543259,144.972595 241.843613,144.972595 
	C241.842209,144.661682 241.840805,144.350754 241.839401,144.039841 
	C218.226440,144.039841 194.613480,144.039841 170.573364,144.029663 
	C164.376526,144.200821 161.867203,147.718018 163.013504,154.482544 
	C162.994537,236.618454 162.976730,318.287323 162.781509,400.246399 
	C162.388046,401.645111 162.171997,402.753571 161.492645,403.902130 
	C137.020889,403.886597 113.012428,403.830933 89.005363,403.328003 
	C89.009262,293.949249 89.011757,185.017731 89.481293,76.067215 
	C144.215195,76.048225 198.482056,76.048225 252.748917,76.048225 
	C252.748795,75.697334 252.748688,75.346443 252.748566,74.995552 
	C226.166931,74.995552 199.585297,74.995552 172.642914,74.808990 
	C168.197372,74.128876 164.112579,73.635323 160.027786,73.141769 
M236.214111,202.002625 
	C238.023926,202.002625 239.833725,202.002625 241.643539,202.002625 
	C241.625061,201.786224 241.606583,201.569824 241.588120,201.353424 
	C225.538895,201.353424 209.489670,201.353424 193.440445,201.353424 
	C193.441559,201.570251 193.442657,201.787064 193.443771,202.003891 
	C207.393723,202.003891 221.343658,202.003891 236.214111,202.002625 
z"/>
<path fill="#EC6728" opacity="1.000000" stroke="none" 
	d="
M612.832397,321.996674 
	C612.874023,322.446136 612.915710,322.895630 612.651367,323.695892 
	C611.651062,323.092316 610.956726,322.137909 609.439148,320.051941 
	C610.110291,323.564362 610.533875,325.781219 610.963196,328.441223 
	C610.951660,331.240265 610.934448,333.596130 610.737305,336.325958 
	C610.369507,338.834625 610.024292,340.968964 610.018860,343.104156 
	C609.973083,361.025940 609.998047,378.947876 609.975403,396.869781 
	C609.972961,398.805603 609.804138,400.741241 609.709045,402.751190 
	C607.110901,402.483917 605.008545,402.267670 602.906250,402.051392 
	C545.186584,354.121490 487.466858,306.191559 429.146240,258.114716 
	C427.690308,258.616913 426.835327,259.266022 425.971161,260.392273 
	C425.926239,291.243103 425.890472,321.616791 425.692810,352.366089 
	C425.629944,360.495209 425.728943,368.248779 425.832642,376.445923 
	C425.870361,379.254913 425.903412,381.620361 425.752930,384.355377 
	C425.363831,391.107910 425.158203,397.490814 424.488281,403.895294 
	C399.607635,403.816284 375.191284,403.705170 350.774811,403.679565 
	C350.198517,403.678955 349.621277,404.637817 349.008972,405.440369 
	C348.967072,405.927032 348.960602,406.122498 348.954163,406.317993 
	C345.462646,401.845184 346.211243,389.348877 350.400848,385.733124 
	C366.528656,371.814453 376.611298,353.976776 381.484924,333.697052 
	C389.709351,299.474457 383.968170,267.612274 361.675415,239.595825 
	C358.819885,236.007187 355.150238,233.015671 351.618683,230.030380 
	C348.287476,227.214478 347.133545,224.929123 349.692841,220.414474 
	C359.176270,203.685501 363.977173,185.565048 363.690369,166.235626 
	C363.639038,162.774353 363.258301,159.317963 363.261810,155.039200 
	C363.865906,146.100128 365.537262,137.896164 361.915497,130.038574 
	C367.416260,128.119797 369.042511,124.136314 366.555206,118.913887 
	C366.144043,118.050560 366.172333,116.977913 365.998779,116.000999 
	C366.000000,116.000000 366.002441,115.997559 366.348938,116.085487 
	C372.290741,120.510017 377.002533,126.240601 384.642609,127.324333 
	C388.290558,127.841789 391.709991,128.776672 393.847229,132.318756 
	C394.342163,133.139008 395.815979,133.634186 396.907318,133.783920 
	C402.183044,134.507706 403.162048,138.967194 405.387604,142.639389 
	C410.766815,141.342896 415.520752,145.939087 416.900421,151.257050 
	C417.709106,154.374390 423.239990,159.330307 426.540314,159.721634 
	C433.239868,160.516037 437.052094,165.464172 435.657043,172.016663 
	C434.398132,172.459442 433.482208,172.885544 432.566254,173.311661 
	C432.934601,173.809738 433.302948,174.307800 433.671295,174.805878 
	C434.447510,173.870575 435.223755,172.935287 436.369293,172.018417 
	C438.075470,172.569687 439.610901,172.843277 440.710724,173.685638 
	C443.612976,175.908417 446.084229,175.478119 448.467194,172.991104 
	C448.467194,172.991104 448.821228,173.110306 448.820312,173.552612 
	C449.542511,174.382431 450.265625,174.769943 450.988770,175.157455 
	C460.931427,183.870224 470.917480,192.534042 480.805969,201.307877 
	C493.812531,212.848297 506.766052,224.448853 519.698547,236.072342 
	C533.081177,248.100479 546.333862,260.274139 559.784241,272.225525 
	C576.094238,286.717743 592.554443,301.040680 608.938599,315.449524 
	C609.935303,316.326050 610.834351,317.313477 611.933716,318.880493 
	C612.336548,320.340027 612.584473,321.168335 612.832397,321.996674 
M399.211151,143.127335 
	C399.056000,143.097549 398.900818,143.067764 398.745667,143.037994 
	C398.852753,143.110535 398.959808,143.183075 399.211151,143.127335 
M428.029449,255.450638 
	C428.029449,255.450638 428.055664,255.523438 428.029449,255.450638 
z"/>
<path fill="#ED6728" opacity="1.000000" stroke="none" 
	d="
M598.897827,281.100433 
	C592.331909,275.630737 585.662292,270.280029 579.224670,264.663239 
	C569.788269,256.429932 560.517944,248.006165 551.270203,239.377380 
	C551.896057,238.886688 552.906311,238.542969 552.893005,238.497513 
	C551.917053,235.148285 544.870850,230.451218 541.518250,230.839615 
	C541.518250,230.839615 541.256836,230.748215 541.223877,230.329651 
	C540.634338,229.558182 540.077820,229.205276 539.521362,228.852386 
	C539.521362,228.852371 539.199158,228.784821 539.198120,228.316025 
	C536.140930,224.558701 533.084717,221.270172 530.017090,217.515106 
	C530.015503,202.884415 530.020020,188.720245 530.036072,174.556091 
	C530.073364,141.730713 530.116150,108.905342 530.418091,76.166580 
	C532.461304,75.852837 534.243103,75.452469 536.346008,75.053726 
	C537.094604,75.061211 537.522034,75.067093 538.001587,75.368149 
	C540.262878,75.782524 542.471924,76.002464 544.681213,76.005211 
	C564.673645,76.030052 584.666626,76.092331 604.658081,75.954620 
	C608.930664,75.925201 610.102783,77.785339 610.046265,81.701347 
	C609.897217,92.028610 609.947083,102.359924 610.039978,112.688530 
	C610.059082,114.807541 610.610474,116.921768 610.932007,119.484818 
	C610.940369,122.626564 610.933167,125.321693 610.745361,128.383301 
	C610.686707,136.496216 610.808716,144.242615 610.935242,152.440186 
	C610.933594,155.598724 610.927368,158.306076 610.749268,161.346649 
	C610.691711,164.115265 610.806091,166.550659 610.924683,169.406097 
	C610.920898,171.226135 610.912781,172.626175 610.727234,174.392548 
	C610.372925,175.735901 610.043701,176.712601 610.041748,177.689957 
	C610.006531,195.343948 609.988831,212.998108 610.046753,230.651947 
	C610.051514,232.099319 610.627808,233.544800 610.944458,235.456451 
	C610.939514,240.285889 610.928650,244.650040 610.762024,249.277344 
	C610.711182,250.688766 610.816101,251.837051 610.928040,253.454468 
	C610.937561,259.935547 610.940125,265.947479 610.759033,272.329224 
	C610.162842,277.271912 609.750427,281.844849 609.203979,287.903290 
	C606.255981,285.102234 604.654114,283.261841 602.723877,281.880280 
	C601.757507,281.188629 600.192200,281.333771 598.897827,281.100433 
z"/>
<path fill="#ED6A2D" opacity="1.000000" stroke="none" 
	d="
M448.306885,172.734283 
	C446.084229,175.478119 443.612976,175.908417 440.710724,173.685638 
	C439.610901,172.843277 438.075470,172.569687 436.369293,172.018433 
	C437.052094,165.464172 433.239868,160.516037 426.540314,159.721634 
	C423.239990,159.330307 417.709106,154.374390 416.900421,151.257050 
	C415.520752,145.939087 410.766815,141.342896 405.387604,142.639389 
	C403.162048,138.967194 402.183044,134.507706 396.907318,133.783920 
	C395.815979,133.634186 394.342163,133.139008 393.847229,132.318756 
	C391.709991,128.776672 388.290558,127.841789 384.642609,127.324333 
	C377.002533,126.240601 372.290741,120.510017 366.330292,115.714737 
	C365.896301,114.764595 365.932831,114.227440 365.742493,113.788666 
	C363.526550,108.679779 358.052795,104.815384 359.832153,98.139198 
	C359.953766,97.682861 358.952698,96.927315 358.387238,96.199577 
	C356.770111,97.050690 355.436707,98.083611 353.934875,98.482552 
	C348.852661,99.832527 346.874725,103.520561 349.198212,108.229286 
	C350.922882,111.724541 353.021698,115.035179 355.091858,118.670349 
	C357.251526,115.768379 358.707733,117.235718 360.023804,119.900764 
	C360.431122,120.725563 361.324921,121.310127 362.061737,122.188133 
	C362.436066,122.516785 362.744629,122.661995 363.053192,122.807205 
	C362.703766,122.536812 362.354309,122.266434 362.002747,121.587250 
	C361.333740,118.118858 360.666870,115.059280 360.000000,111.999847 
	C360.000000,112.000000 360.000000,112.000305 360.305511,112.119324 
	C362.406525,113.492897 364.202057,114.747444 365.997559,116.001999 
	C366.172333,116.977913 366.144043,118.050560 366.555206,118.913887 
	C369.042511,124.136314 367.416260,128.119797 361.915497,130.038574 
	C365.537262,137.896164 363.865906,146.100128 363.330322,154.593201 
	C362.833862,153.544586 362.501007,152.121857 362.315308,150.063080 
	C362.335785,148.296692 362.209076,147.166351 362.082397,146.036011 
	C358.090729,135.884888 354.442230,125.578766 349.957642,115.650276 
	C347.826782,110.932701 343.949951,107.030106 341.162872,102.571541 
	C339.760498,100.328110 338.382050,97.731628 338.127625,95.181580 
	C337.650543,90.399986 337.895538,85.532471 338.064209,80.708519 
	C338.117004,79.198494 338.888855,77.713608 339.331604,76.217224 
	C340.519867,76.950043 341.855408,77.519783 342.874542,78.439926 
	C360.805389,94.628899 378.655945,110.907021 396.618500,127.060600 
	C403.959839,133.662628 411.571930,139.962601 418.977844,146.494110 
	C428.743500,155.106766 438.427490,163.812012 448.306885,172.734283 
z"/>
<path fill="#E5682C" opacity="1.000000" stroke="none" 
	d="
M87.696304,405.348145 
	C87.137428,404.549377 86.087524,403.747406 86.092773,402.952362 
	C86.182426,389.382660 86.505959,375.814209 86.555481,362.244659 
	C86.585175,354.109802 86.079346,345.973633 86.073799,337.837860 
	C86.015106,251.780258 86.007004,165.722595 85.991035,79.664940 
	C85.989792,72.993820 86.011162,72.991074 92.601776,72.996384 
	C107.083649,73.008057 121.565521,73.022774 136.135712,73.269981 
	C124.418694,73.663132 112.612411,73.776733 100.808853,74.021744 
	C98.527931,74.069084 96.257668,74.630302 93.589340,74.964401 
	C91.472191,75.341309 89.748207,75.708290 88.025063,76.539215 
	C88.026581,185.981537 88.027245,294.959930 87.944046,404.290527 
	C87.805557,404.877899 87.750931,405.113007 87.696304,405.348145 
z"/>
<path fill="#DF672D" opacity="1.000000" stroke="none" 
	d="
M598.912720,281.074890 
	C600.192200,281.333771 601.757507,281.188629 602.723877,281.880280 
	C604.654114,283.261841 606.255981,285.102234 609.203979,287.903290 
	C609.750427,281.844849 610.162842,277.271912 610.780457,272.800354 
	C610.985596,277.488007 610.985596,282.074249 610.985596,286.660492 
	C611.237000,286.647705 611.488342,286.634918 611.739746,286.622131 
	C611.739746,218.483353 611.739746,150.344574 611.739746,82.205803 
	C611.465332,82.204292 611.190918,82.202774 610.916504,82.201263 
	C610.916504,94.480240 610.916504,106.759224 610.916504,119.038200 
	C610.610474,116.921768 610.059082,114.807541 610.039978,112.688530 
	C609.947083,102.359924 609.897217,92.028610 610.046265,81.701347 
	C610.102783,77.785339 608.930664,75.925201 604.658081,75.954620 
	C584.666626,76.092331 564.673645,76.030052 544.681213,76.005211 
	C542.471924,76.002464 540.262878,75.782524 538.475708,75.348618 
	C561.809509,75.033920 584.721313,75.033920 607.633118,75.033920 
	C582.869812,74.045471 558.112000,74.033348 533.354187,74.085289 
	C532.246826,74.087608 531.140564,74.671890 529.822876,75.340897 
	C529.430603,77.334755 529.092712,78.972649 529.090820,80.610931 
	C529.040161,124.471420 529.010925,168.331955 529.045593,212.192429 
	C529.047119,214.122421 529.686340,216.051926 530.028503,217.981659 
	C533.084717,221.270172 536.140930,224.558701 539.111084,228.176315 
	C529.164734,223.225754 527.600830,214.847412 527.744934,204.232559 
	C528.323669,161.610428 527.934448,118.975166 527.916321,76.344749 
	C527.915955,75.391891 528.073364,74.438965 528.181030,73.214622 
	C529.223877,73.132858 530.014648,73.017097 530.805542,73.016640 
	C556.617615,73.001884 582.429871,73.049088 608.241455,72.934250 
	C611.827576,72.918297 613.128601,73.838219 613.121094,77.717285 
	C612.986572,147.159897 613.002563,216.602783 612.986328,286.045624 
	C612.985901,287.866821 612.986267,289.687988 612.986267,293.399597 
	C609.036621,290.300385 606.123047,288.014160 602.963989,285.134216 
	C602.107239,284.053467 601.496094,283.566437 600.884888,283.079437 
	C600.884888,283.079437 600.954834,283.040894 600.835754,282.789856 
	C600.104675,282.054230 599.492615,281.569702 598.880615,281.085144 
	C598.880615,281.085144 598.927673,281.049316 598.912720,281.074890 
z"/>
<path fill="#E16930" opacity="1.000000" stroke="none" 
	d="
M161.955948,403.862061 
	C162.171997,402.753571 162.388046,401.645111 162.991257,399.894043 
	C163.585907,397.614044 163.974396,395.976746 163.974915,394.339294 
	C164.000534,315.373108 163.996780,236.406952 163.948120,157.440811 
	C163.947418,156.298859 163.339294,155.157272 163.014664,154.015518 
	C161.867203,147.718018 164.376526,144.200821 170.573273,144.260925 
	C171.000320,144.502365 171.005951,144.965683 171.005951,144.965683 
	C169.436554,145.178574 167.867157,145.391479 166.194275,145.831161 
	C165.940994,155.057968 165.790604,164.057999 165.641556,173.058044 
	C165.502502,181.455750 165.234009,189.853928 165.263290,198.251068 
	C165.292816,206.713211 165.631973,215.174057 165.808960,223.636017 
	C165.892471,227.629013 165.953293,231.623276 165.957016,235.617020 
	C165.977554,257.667023 166.100342,279.717834 165.955597,301.766876 
	C165.733917,335.531921 165.323898,369.295776 164.987122,403.060059 
	C164.979050,403.868286 164.892090,404.675690 164.811142,405.979095 
	C162.712296,406.075287 160.789108,406.163452 158.455139,406.004700 
	C158.044800,405.527496 158.045227,405.297211 158.381744,405.059326 
	C159.797211,404.655182 160.876587,404.258606 161.955948,403.862061 
z"/>
<path fill="#B55F39" opacity="1.000000" stroke="none" 
	d="
M190.045074,336.044586 
	C190.024506,357.012207 190.048157,377.980072 189.940567,398.947266 
	C189.922287,402.510254 191.137207,404.049866 194.856689,404.026855 
	C216.157242,403.895111 237.479858,404.461334 258.751343,403.648163 
	C270.231995,403.209229 281.625641,400.494690 293.378296,398.759613 
	C293.070648,398.338196 293.242828,398.471863 293.227844,398.579437 
	C293.209137,398.713806 292.982513,398.810913 292.940918,398.952148 
	C292.840881,399.291779 292.796356,399.647797 292.879639,400.084717 
	C282.603149,402.109406 272.176483,404.046570 260.987152,405.749390 
	C258.584656,405.349670 256.944916,405.042236 255.304855,405.040344 
	C233.248230,405.015198 211.191544,405.032593 189.091400,404.568298 
	C189.028763,381.407715 189.009628,358.718262 189.150299,335.838837 
	C189.533875,335.403534 189.778168,335.180756 190.028183,334.987579 
	C190.013351,334.994629 190.027222,334.983826 190.024323,335.249146 
	C190.029312,335.691162 190.037186,335.867859 190.045074,336.044586 
z"/>
<path fill="#DF672D" opacity="1.000000" stroke="none" 
	d="
M610.957520,327.998077 
	C610.533875,325.781219 610.110291,323.564362 609.439148,320.051941 
	C610.956726,322.137909 611.651062,323.092316 612.588623,324.030060 
	C612.881836,345.413361 612.867859,366.813782 613.023315,388.212952 
	C613.066406,394.145081 613.710999,400.071259 613.850342,406.005554 
	C613.880371,407.287567 612.922729,408.592773 612.420105,409.887299 
	C611.266235,409.413757 609.913025,409.179626 608.998596,408.418457 
	C606.891479,406.664520 604.997559,404.654572 602.961670,402.399963 
	C605.008545,402.267670 607.110901,402.483917 609.709045,402.751190 
	C609.804138,400.741241 609.972961,398.805603 609.975403,396.869781 
	C609.998047,378.947876 609.973083,361.025940 610.018860,343.104156 
	C610.024292,340.968964 610.369507,338.834625 610.761780,336.799500 
	C610.966309,358.819946 610.966309,380.740845 610.966309,402.661713 
	C611.966248,378.867584 611.979614,355.080078 611.923401,331.292725 
	C611.920837,330.193756 611.293762,329.096252 610.957520,327.998077 
z"/>
<path fill="#D75E29" opacity="1.000000" stroke="none" 
	d="
M425.980316,259.915100 
	C426.835327,259.266022 427.690308,258.616913 428.830750,258.011017 
	C428.745209,260.304993 428.053497,262.555359 428.050568,264.806610 
	C427.992249,309.717133 428.013397,354.627808 428.018494,399.538422 
	C428.018707,401.502899 428.018524,403.467346 428.018524,406.254700 
	C425.363525,406.254700 423.111023,406.254700 420.423187,405.904144 
	C419.987854,405.553589 419.993896,405.079193 420.422729,405.063477 
	C426.978394,404.753876 427.183685,404.537903 426.417847,399.611359 
	C425.998993,400.829834 425.475769,402.351807 424.952576,403.873749 
	C425.158203,397.490814 425.363831,391.107910 425.985229,384.010498 
	C426.620392,381.498566 427.029694,379.701233 427.031189,377.903595 
	C427.062439,340.503174 427.063141,303.102692 426.996460,265.702362 
	C426.993011,263.772675 426.334076,261.844147 425.980316,259.915100 
z"/>
<path fill="#B55F39" opacity="1.000000" stroke="none" 
	d="
M188.136673,271.304779 
	C188.419968,268.551483 188.947845,266.105042 188.956467,263.656799 
	C189.024872,244.226715 188.994553,224.796310 189.911560,205.353729 
	C189.911560,210.225266 189.904739,215.096802 189.912842,219.968323 
	C189.937485,234.766693 190.097458,249.566650 189.916763,264.362457 
	C189.862885,268.776276 191.447205,270.101410 195.738419,270.065918 
	C216.188812,269.896851 236.641327,269.984436 257.203064,270.195007 
	C255.514160,270.614929 253.716400,270.986237 251.916183,270.998688 
	C241.956268,271.067474 231.995728,271.048889 221.563690,271.043152 
	C218.288193,271.016479 215.481644,270.921936 212.681229,271.013885 
	C205.468155,271.250641 198.257797,271.569916 191.046356,271.856262 
	C190.077789,271.774445 189.109238,271.692627 188.136673,271.304779 
z"/>
<path fill="#C85422" opacity="1.000000" stroke="none" 
	d="
M419.993896,405.079193 
	C419.993896,405.079193 419.987854,405.553589 419.980591,405.790710 
	C413.588470,406.099243 407.203186,406.146332 400.818817,406.247070 
	C386.271271,406.476654 371.724426,406.746582 357.176758,406.964478 
	C354.594421,407.003174 352.009521,406.869415 349.190002,406.566650 
	C348.960602,406.122498 348.967072,405.927032 349.471252,405.399109 
	C373.310638,405.070801 396.652252,405.074982 419.993896,405.079193 
z"/>
<path fill="#E16930" opacity="1.000000" stroke="none" 
	d="
M190.043015,334.980530 
	C189.778168,335.180756 189.533875,335.403534 188.888275,335.832520 
	C188.291656,336.015564 188.116913,336.014893 187.942184,336.014252 
	C187.132721,331.688202 190.109924,331.946930 192.853729,331.991486 
	C208.141251,332.239716 223.427780,332.602661 238.716187,332.715698 
	C244.850601,332.761047 250.988983,332.269562 257.578979,332.097870 
	C260.863464,332.556488 263.694519,332.939606 266.525574,333.322723 
	C266.526093,333.555450 266.526581,333.788147 266.527100,334.020874 
	C263.948700,334.020874 261.370331,334.020874 257.890747,334.026306 
	C236.940842,334.035065 216.892044,334.008575 196.843613,334.082886 
	C194.575668,334.091278 192.309830,334.667572 190.043015,334.980530 
z"/>
<path fill="#C85422" opacity="1.000000" stroke="none" 
	d="
M189.134872,405.039429 
	C211.191544,405.032593 233.248230,405.015198 255.304855,405.040344 
	C256.944916,405.042236 258.584656,405.349670 260.591156,405.693481 
	C244.521362,406.034180 228.084564,406.166290 211.648697,406.373383 
	C204.920273,406.458191 198.194397,406.759308 191.466064,406.821838 
	C190.411209,406.831696 189.349380,406.092621 188.468231,405.354858 
	C188.645676,405.009888 189.134872,405.039429 189.134872,405.039429 
z"/>
<path fill="#C85422" opacity="1.000000" stroke="none" 
	d="
M158.045654,405.066925 
	C158.045227,405.297211 158.044800,405.527496 158.011780,406.104431 
	C150.411438,406.419067 142.842728,406.298218 135.276077,406.375702 
	C123.495743,406.496307 111.717178,406.785522 99.936897,406.916534 
	C97.974480,406.938385 96.007179,406.520020 93.962662,405.957214 
	C95.344505,405.397369 96.805717,405.001892 98.267128,405.001160 
	C118.193283,404.991150 138.119476,405.035767 158.045654,405.066925 
z"/>
<path fill="#DE5D21" opacity="1.000000" stroke="none" 
	d="
M93.982491,74.954475 
	C96.257668,74.630302 98.527931,74.069084 100.808853,74.021744 
	C112.612411,73.776733 124.418694,73.663132 136.598358,73.337456 
	C137.742920,73.120232 138.513153,73.069267 140.035919,73.260071 
	C146.517365,73.386574 152.246307,73.271309 157.975235,73.156036 
	C158.432587,73.105240 158.889954,73.054443 159.687546,73.072708 
	C164.112579,73.635323 168.197372,74.128876 172.173828,74.809570 
	C146.037827,74.982620 120.010162,74.968552 93.982491,74.954475 
z"/>
<path fill="#D75E29" opacity="1.000000" stroke="none" 
	d="
M222.035416,271.060272 
	C231.995728,271.048889 241.956268,271.067474 251.916183,270.998688 
	C253.716400,270.986237 255.514160,270.614929 257.673889,270.199249 
	C261.941437,270.695312 265.848114,271.401428 269.754791,272.107544 
	C269.716919,272.447906 269.679016,272.788269 269.641113,273.128632 
	C268.604584,273.283905 267.568024,273.439148 266.289978,273.719238 
	C250.353470,273.498352 234.658447,273.152618 218.812622,272.650635 
	C219.786346,272.016327 220.910873,271.538300 222.035416,271.060272 
z"/>
<path fill="#B55F39" opacity="1.000000" stroke="none" 
	d="
M158.381744,405.059326 
	C138.119476,405.035767 118.193283,404.991150 98.267128,405.001160 
	C96.805717,405.001892 95.344505,405.397369 93.572678,405.845642 
	C92.383163,406.129730 91.504173,406.177521 89.993988,405.941620 
	C88.843513,405.491455 88.324234,405.325012 87.804947,405.158569 
	C87.804947,405.158569 87.835571,405.302979 87.765945,405.325562 
	C87.750931,405.113007 87.805557,404.877899 88.189697,404.260864 
	C88.519211,403.878967 89.003967,403.775299 89.003967,403.775269 
	C113.012428,403.830933 137.020889,403.886597 161.492661,403.902161 
	C160.876587,404.258606 159.797211,404.655182 158.381744,405.059326 
z"/>
<path fill="#EC6727" opacity="1.000000" stroke="none" 
	d="
M189.091400,404.568298 
	C189.134872,405.039429 188.645676,405.009888 188.401184,404.993500 
	C188.064117,382.301117 187.971542,359.625153 187.910583,336.481689 
	C188.116913,336.014893 188.291656,336.015564 188.728439,336.022522 
	C189.009628,358.718262 189.028763,381.407715 189.091400,404.568298 
z"/>
<path fill="#C85422" opacity="1.000000" stroke="none" 
	d="
M221.563690,271.043152 
	C220.910873,271.538300 219.786346,272.016327 218.375519,272.608276 
	C209.318863,272.577972 200.548523,272.433777 191.412262,272.072906 
	C198.257797,271.569916 205.468155,271.250641 212.681229,271.013885 
	C215.481644,270.921936 218.288193,271.016479 221.563690,271.043152 
z"/>
<path fill="#DF672D" opacity="1.000000" stroke="none" 
	d="
M541.706909,231.089737 
	C544.870850,230.451218 551.917053,235.148285 552.893005,238.497513 
	C552.906311,238.542969 551.896057,238.886688 551.124146,239.069885 
	C550.331604,238.614197 549.778381,238.179825 549.011963,237.194061 
	C548.167786,236.119781 547.536804,235.596863 546.905884,235.073944 
	C546.905884,235.073944 546.986084,235.013565 546.912476,234.893219 
	C546.524475,234.643387 546.210144,234.513885 545.895752,234.384399 
	C544.562378,233.369553 543.228943,232.354706 541.706909,231.089737 
z"/>
<path fill="#EC6727" opacity="1.000000" stroke="none" 
	d="
M157.511917,73.098335 
	C152.246307,73.271309 146.517365,73.386574 140.416550,73.336563 
	C145.712646,73.127724 151.380615,73.084175 157.511917,73.098335 
z"/>
<path fill="#ED6A2D" opacity="1.000000" stroke="none" 
	d="
M450.740173,175.050018 
	C450.265625,174.769943 449.542511,174.382431 448.894714,173.723938 
	C449.477234,173.949493 449.984406,174.446045 450.740173,175.050018 
z"/>
<path fill="#EC6728" opacity="1.000000" stroke="none" 
	d="
M362.042786,146.427917 
	C362.209076,147.166351 362.335785,148.296692 362.321716,149.693878 
	C362.121735,148.913742 362.062469,147.866776 362.042786,146.427917 
z"/>
<path fill="#DF672D" opacity="1.000000" stroke="none" 
	d="
M539.657166,229.043488 
	C540.077820,229.205276 540.634338,229.558182 541.176758,230.199417 
	C540.706055,230.070038 540.249512,229.652313 539.657166,229.043488 
z"/>
<path fill="#ED6728" opacity="1.000000" stroke="none" 
	d="
M547.028076,235.359467 
	C547.536804,235.596863 548.167786,236.119781 548.923645,236.940338 
	C548.415771,236.706985 547.783020,236.175995 547.028076,235.359467 
z"/>
<path fill="#DF672D" opacity="1.000000" stroke="none" 
	d="
M612.904480,321.649017 
	C612.584473,321.168335 612.336548,320.340027 612.072327,319.183777 
	C612.362854,319.671021 612.669678,320.486176 612.904480,321.649017 
z"/>
<path fill="#ED6728" opacity="1.000000" stroke="none" 
	d="
M601.008301,283.348877 
	C601.496094,283.566437 602.107239,284.053467 602.824463,284.825500 
	C602.330872,284.613098 601.731323,284.115692 601.008301,283.348877 
z"/>
<path fill="#ED6728" opacity="1.000000" stroke="none" 
	d="
M598.997925,281.357269 
	C599.492615,281.569702 600.104675,282.054230 600.819092,282.826111 
	C600.319336,282.618774 599.717285,282.124084 598.997925,281.357269 
z"/>
<path fill="#ED6728" opacity="1.000000" stroke="none" 
	d="
M546.004761,234.574829 
	C546.210144,234.513885 546.524475,234.643387 546.881592,234.932800 
	C546.627625,235.049240 546.357422,234.940079 546.004761,234.574829 
z"/>
<path fill="#E5682C" opacity="1.000000" stroke="none" 
	d="
M87.830605,405.502350 
	C88.324234,405.325012 88.843513,405.491455 89.566223,405.835754 
	C89.131851,405.957764 88.494049,405.901947 87.830605,405.502350 
z"/>
<path fill="#DE5D21" opacity="1.000000" stroke="none" 
	d="
M89.005363,403.328033 
	C89.003967,403.775299 88.519211,403.878967 88.273560,403.908630 
	C88.027245,294.959930 88.026581,185.981537 88.272537,76.536530 
	C88.519173,76.069908 89.014259,76.086205 89.014259,76.086205 
	C89.011757,185.017731 89.009262,293.949249 89.005363,403.328033 
z"/>
<path fill="#D75B1F" opacity="1.000000" stroke="none" 
	d="
M163.013504,154.482544 
	C163.339294,155.157272 163.947418,156.298859 163.948120,157.440811 
	C163.996780,236.406952 164.000534,315.373108 163.974915,394.339294 
	C163.974396,395.976746 163.585907,397.614044 163.168655,399.603821 
	C162.976730,318.287323 162.994537,236.618454 163.013504,154.482544 
z"/>
<path fill="#E16930" opacity="1.000000" stroke="none" 
	d="
M89.481293,76.067215 
	C89.014259,76.086205 88.519173,76.069908 88.271698,76.072594 
	C89.748207,75.708290 91.472191,75.341309 93.589340,74.964401 
	C120.010162,74.968552 146.037827,74.982620 172.534576,74.996124 
	C199.585297,74.995552 226.166931,74.995552 252.748566,74.995552 
	C252.748688,75.346443 252.748795,75.697334 252.748917,76.048225 
	C198.482056,76.048225 144.215195,76.048225 89.481293,76.067215 
z"/>
<path fill="#B55F39" opacity="1.000000" stroke="none" 
	d="
M171.474243,144.969147 
	C171.005951,144.965683 171.000320,144.502365 171.000427,144.271103 
	C194.613480,144.039841 218.226440,144.039841 241.839401,144.039841 
	C241.840805,144.350754 241.842209,144.661682 241.843613,144.972595 
	C218.543259,144.972595 195.242905,144.972595 171.474243,144.969147 
z"/>
<path fill="#C85422" opacity="1.000000" stroke="none" 
	d="
M190.028183,334.987579 
	C192.309830,334.667572 194.575668,334.091278 196.843613,334.082886 
	C216.892044,334.008575 236.940842,334.035065 257.447388,334.026428 
	C256.832001,334.330322 255.758743,334.639557 253.871918,334.960632 
	C232.047958,334.976257 211.037598,334.980042 190.027222,334.983826 
	C190.027222,334.983826 190.013351,334.994629 190.028183,334.987579 
z"/>
<path fill="#E16930" opacity="1.000000" stroke="none" 
	d="
M190.024323,335.249146 
	C211.037598,334.980042 232.047958,334.976257 253.526459,334.979767 
	C251.732849,335.324921 249.472427,335.945770 247.209213,335.956146 
	C228.464294,336.042206 209.718887,336.015381 190.509338,336.033661 
	C190.037186,335.867859 190.029312,335.691162 190.024323,335.249146 
z"/>
<path fill="#B55F39" opacity="1.000000" stroke="none" 
	d="
M235.753860,202.003265 
	C221.343658,202.003891 207.393723,202.003891 193.443771,202.003891 
	C193.442657,201.787064 193.441559,201.570251 193.440445,201.353424 
	C209.489670,201.353424 225.538895,201.353424 241.588120,201.353424 
	C241.606583,201.569824 241.625061,201.786224 241.643539,202.002625 
	C239.833725,202.002625 238.023926,202.002625 235.753860,202.003265 
z"/>
<path fill="#B55F39" opacity="1.000000" stroke="none" 
	d="
M425.971161,260.392242 
	C426.334076,261.844147 426.993011,263.772675 426.996460,265.702362 
	C427.063141,303.102692 427.062439,340.503174 427.031189,377.903595 
	C427.029694,379.701233 426.620392,381.498566 426.168762,383.640900 
	C425.903412,381.620361 425.870361,379.254913 425.866211,375.979523 
	C425.881592,367.376526 425.868134,359.683533 425.854675,351.990509 
	C425.890472,321.616791 425.926239,291.243103 425.971161,260.392242 
z"/>
<path fill="#B55F39" opacity="1.000000" stroke="none" 
	d="
M420.422729,405.063477 
	C396.652252,405.074982 373.310638,405.070801 349.506714,405.107880 
	C349.621277,404.637817 350.198517,403.678955 350.774811,403.679565 
	C375.191284,403.705170 399.607635,403.816284 424.488281,403.895294 
	C425.475769,402.351807 425.998993,400.829834 426.417847,399.611359 
	C427.183685,404.537903 426.978394,404.753876 420.422729,405.063477 
z"/>
<path fill="#CA521A" opacity="1.000000" stroke="none" 
	d="
M610.963196,328.441223 
	C611.293762,329.096252 611.920837,330.193756 611.923401,331.292725 
	C611.979614,355.080078 611.966248,378.867584 610.966309,402.661713 
	C610.966309,380.740845 610.966309,358.819946 610.941772,336.425537 
	C610.934448,333.596130 610.951660,331.240265 610.963196,328.441223 
z"/>
<path fill="#D75E29" opacity="1.000000" stroke="none" 
	d="
M425.692810,352.366089 
	C425.868134,359.683533 425.881592,367.376526 425.861511,375.535950 
	C425.728943,368.248779 425.629944,360.495209 425.692810,352.366089 
z"/>
<path fill="#ED6A2D" opacity="1.000000" stroke="none" 
	d="
M435.657043,172.016663 
	C435.223755,172.935287 434.447510,173.870575 433.671295,174.805878 
	C433.302948,174.307800 432.934601,173.809738 432.566254,173.311661 
	C433.482208,172.885544 434.398132,172.459442 435.657043,172.016663 
z"/>
<path fill="#ED6A2D" opacity="1.000000" stroke="none" 
	d="
M399.139038,143.191467 
	C398.959808,143.183075 398.852753,143.110535 398.745667,143.037994 
	C398.900818,143.067764 399.056000,143.097549 399.139038,143.191467 
z"/>
<path fill="#D75E29" opacity="1.000000" stroke="none" 
	d="
M428.042542,255.487030 
	C428.055664,255.523438 428.029449,255.450638 428.042542,255.487030 
z"/>
<path fill="#CA521A" opacity="1.000000" stroke="none" 
	d="
M610.932007,119.484818 
	C610.916504,106.759224 610.916504,94.480240 610.916504,82.201263 
	C611.190918,82.202774 611.465332,82.204292 611.739746,82.205803 
	C611.739746,150.344574 611.739746,218.483353 611.739746,286.622131 
	C611.488342,286.634918 611.237000,286.647705 610.985596,286.660492 
	C610.985596,282.074249 610.985596,277.488007 610.964111,272.430603 
	C610.940125,265.947479 610.937561,259.935547 610.946716,253.057877 
	C610.944885,251.132828 610.931335,250.073502 610.917847,249.014175 
	C610.928650,244.650040 610.939514,240.285889 610.961914,234.989578 
	C610.950562,214.046997 610.927612,194.036606 610.904663,174.026199 
	C610.912781,172.626175 610.920898,171.226135 610.944397,168.964478 
	C610.946899,165.739716 610.934021,163.376572 610.921143,161.013443 
	C610.927368,158.306076 610.933594,155.598724 610.954346,151.973663 
	C610.954590,143.376251 610.940308,135.696533 610.926025,128.016815 
	C610.933167,125.321693 610.940369,122.626564 610.932007,119.484818 
z"/>
<path fill="#B55F39" opacity="1.000000" stroke="none" 
	d="
M530.017090,217.515106 
	C529.686340,216.051926 529.047119,214.122421 529.045593,212.192429 
	C529.010925,168.331955 529.040161,124.471420 529.090820,80.610931 
	C529.092712,78.972649 529.430603,77.334755 529.810669,75.344833 
	C530.009399,74.992973 530.018066,74.978912 530.050415,75.254463 
	C530.107361,75.713326 530.132019,75.896645 530.156677,76.079964 
	C530.116150,108.905342 530.073364,141.730713 530.036072,174.556091 
	C530.020020,188.720245 530.015503,202.884415 530.017090,217.515106 
z"/>
<path fill="#D75B1F" opacity="1.000000" stroke="none" 
	d="
M530.021606,74.989037 
	C531.140564,74.671890 532.246826,74.087608 533.354187,74.085289 
	C558.112000,74.033348 582.869812,74.045471 607.633118,75.033920 
	C584.721313,75.033920 561.809509,75.033920 538.423584,75.053452 
	C537.522034,75.067093 537.094604,75.061211 535.916016,75.038177 
	C533.449341,75.006989 531.733704,74.992950 530.018066,74.978912 
	C530.018066,74.978912 530.009399,74.992973 530.021606,74.989037 
z"/>
<path fill="#DF672D" opacity="1.000000" stroke="none" 
	d="
M610.727173,174.392548 
	C610.927612,194.036606 610.950562,214.046997 610.955994,234.524292 
	C610.627808,233.544800 610.051514,232.099319 610.046753,230.651947 
	C609.988831,212.998108 610.006531,195.343948 610.041748,177.689957 
	C610.043701,176.712601 610.372925,175.735901 610.727173,174.392548 
z"/>
<path fill="#DF672D" opacity="1.000000" stroke="none" 
	d="
M610.745361,128.383301 
	C610.940308,135.696533 610.954590,143.376251 610.949829,151.522491 
	C610.808716,144.242615 610.686707,136.496216 610.745361,128.383301 
z"/>
<path fill="#DF672D" opacity="1.000000" stroke="none" 
	d="
M530.050415,75.254463 
	C531.733704,74.992950 533.449341,75.006989 535.594971,75.036568 
	C534.243103,75.452469 532.461304,75.852837 530.418091,76.166580 
	C530.132019,75.896645 530.107361,75.713326 530.050415,75.254463 
z"/>
<path fill="#DF672D" opacity="1.000000" stroke="none" 
	d="
M610.749268,161.346649 
	C610.934021,163.376572 610.946899,165.739716 610.940063,168.544464 
	C610.806091,166.550659 610.691711,164.115265 610.749268,161.346649 
z"/>
<path fill="#DF672D" opacity="1.000000" stroke="none" 
	d="
M610.762085,249.277344 
	C610.931335,250.073502 610.944885,251.132828 610.939758,252.588745 
	C610.816101,251.837051 610.711182,250.688766 610.762085,249.277344 
z"/>
<path fill="#EC6728" opacity="1.000000" stroke="none" 
	d="
M360.000000,111.999695 
	C360.666870,115.059280 361.333740,118.118858 362.000305,121.589218 
	C362.000000,122.000000 361.995972,122.004692 361.995972,122.004684 
	C361.324921,121.310127 360.431122,120.725563 360.023804,119.900764 
	C358.707733,117.235718 357.251526,115.768379 355.091858,118.670349 
	C353.021698,115.035179 350.922882,111.724541 349.198212,108.229286 
	C346.874725,103.520561 348.852661,99.832527 353.934875,98.482552 
	C355.436707,98.083611 356.770111,97.050690 358.387238,96.199577 
	C358.952698,96.927315 359.953766,97.682861 359.832153,98.139198 
	C358.052795,104.815384 363.526550,108.679779 365.742493,113.788666 
	C365.932831,114.227440 365.896301,114.764595 365.983826,115.626801 
	C366.002441,115.997559 366.000000,116.000000 365.998779,116.000999 
	C364.202057,114.747444 362.406525,113.492897 360.140564,111.828751 
	C358.329163,111.004601 356.988220,110.590042 355.647308,110.175484 
	C355.558960,110.678146 355.470642,111.180801 355.382324,111.683464 
	C356.921539,111.788872 358.460785,111.894279 360.000000,111.999695 
z"/>
<path fill="#EC6728" opacity="1.000000" stroke="none" 
	d="
M362.002441,121.998032 
	C362.354309,122.266434 362.703766,122.536812 363.053192,122.807205 
	C362.744629,122.661995 362.436066,122.516785 362.061737,122.188141 
	C361.995972,122.004692 362.000000,122.000000 362.002441,121.998032 
z"/>
<path fill="#ED6A2D" opacity="1.000000" stroke="none" 
	d="
M360.000000,111.999847 
	C358.460785,111.894279 356.921539,111.788872 355.382324,111.683464 
	C355.470642,111.180801 355.558960,110.678146 355.647308,110.175484 
	C356.988220,110.590042 358.329163,111.004601 359.835022,111.709732 
	C360.000000,112.000305 360.000000,112.000000 360.000000,111.999847 
z"/>
</svg>